<svg width="48" height="48" viewBox="0 0 48 48" fill="none" xmlns="http://www.w3.org/2000/svg">
<g clip-path="url(#clip0_61535:168)">
<rect width="48" height="48" rx="8" fill="white"/>
<path fill-rule="evenodd" clip-rule="evenodd" d="M42.1356 0C45.3723 0 48 2.62781 48 5.86444V42.1356C48 45.3722 45.3722 48 42.1356 48H5.86444C2.62781 48 0 45.3722 0 42.1356V5.86444C0 2.62781 2.62772 0 5.86444 0L42.1356 0ZM42.721 30.999C42.8071 29.703 42.7015 28.4657 42.4015 27.2808C42.0988 26.0941 41.6133 25.036 40.9334 24.1112C40.2526 23.1845 39.3854 22.4442 38.3292 21.8975C37.2676 21.3436 36.0311 21.072 34.6181 21.072C33.3382 21.072 32.1825 21.2993 31.1343 21.751C30.0869 22.2054 29.1878 22.8268 28.4288 23.6141C27.6717 24.3969 27.0948 25.3307 26.6794 26.4128C26.2711 27.4912 26.0625 28.6575 26.0625 29.9063C26.0625 31.1978 26.2631 32.3899 26.6617 33.4665C27.0646 34.5485 27.63 35.4698 28.3579 36.2491C29.1053 37.0258 29.9928 37.6205 31.0553 38.0456C32.1187 38.4646 33.3027 38.6776 34.6181 38.6776C36.5061 38.6776 38.125 38.2453 39.4538 37.3781C40.7985 36.5137 41.7829 35.0783 42.4326 33.068H38.3922C38.2359 33.5845 37.8312 34.0825 37.1664 34.5485C36.4954 35.0153 35.6965 35.2488 34.7717 35.2488C33.4846 35.2488 32.4914 34.9116 31.8036 34.2405C31.1148 33.5694 30.6692 32.3198 30.6692 30.999H42.721ZM16.4285 38.2453C17.4635 38.2453 18.4727 38.1149 19.4445 37.8575C20.428 37.5992 21.304 37.2015 22.0683 36.6609C22.8263 36.1249 23.4414 35.4299 23.8932 34.5725C24.3414 33.7248 24.5651 32.7183 24.5651 31.5484C24.5651 30.1052 24.2216 28.8749 23.5213 27.8462C22.8246 26.8246 21.7718 26.1065 20.3543 25.6982C21.3955 25.2047 22.1757 24.5701 22.7064 23.7961C23.2346 23.0203 23.4973 22.0502 23.4973 20.8892C23.4973 19.816 23.3207 18.9081 22.9701 18.1829C22.6097 17.4471 22.1064 16.863 21.4639 16.4236C20.8105 15.9843 20.0393 15.6638 19.1339 15.4721C18.2241 15.2742 17.2282 15.1793 16.1249 15.1793H5.25V38.2453H16.4285ZM15.8497 27.9652C16.9424 27.9652 17.8309 28.2163 18.4984 28.7223C19.1632 29.2344 19.4987 30.0794 19.4987 31.2679C19.4987 31.8742 19.4002 32.3766 19.1951 32.7636C18.9909 33.1522 18.7087 33.4594 18.3697 33.6831C18.0288 33.9157 17.6267 34.0736 17.1723 34.1722C16.7249 34.2725 16.2491 34.3168 15.7494 34.3168H10.328V27.9652H15.8497ZM37.075 25.4647C36.5291 24.8621 35.6069 24.5354 34.4805 24.5354C33.7474 24.5354 33.1411 24.6588 32.6547 24.91C32.1789 25.1586 31.7903 25.4665 31.4929 25.8305C31.1964 26.1997 30.9958 26.5902 30.8778 27.0074C30.7606 27.4139 30.6896 27.7823 30.6692 28.108H38.1322C38.0229 26.9382 37.6226 26.0728 37.075 25.4647ZM15.0802 19.1086C15.5303 19.1087 15.9679 19.1406 16.3868 19.2222C16.8119 19.2959 17.1794 19.4308 17.5042 19.627C17.8309 19.816 18.0909 20.085 18.2871 20.4294C18.4762 20.7738 18.5693 21.2176 18.5693 21.7537C18.5693 22.7212 18.2871 23.425 17.7031 23.852C17.1128 24.2851 16.3673 24.4982 15.4681 24.4982H10.328V19.1086H15.0802ZM39.0801 19.003V16.7272H29.7301V19.003H39.0801Z" fill="#323238"/>
</g>
<defs>
<clipPath id="clip0_61535:168">
<rect width="48" height="48" rx="8" fill="white"/>
</clipPath>
</defs>
</svg>
