<svg width="48" height="48" viewBox="0 0 48 48" fill="none" xmlns="http://www.w3.org/2000/svg">
<g clip-path="url(#clip0_61535:170)">
<rect width="48" height="48" rx="8" fill="white"/>
<path fill-rule="evenodd" clip-rule="evenodd" d="M42.1356 0C45.3723 0 48 2.62781 48 5.86444V42.1356C48 45.3722 45.3722 48 42.1356 48H5.86444C2.62781 48 0 45.3722 0 42.1356V5.86444C0 2.62781 2.62772 0 5.86444 0L42.1356 0ZM24 7.59375C19.5443 7.59375 18.9856 7.61259 17.2358 7.69247C15.4895 7.77216 14.2969 8.04947 13.2533 8.45513C12.1744 8.87438 11.2595 9.43538 10.3474 10.3474C9.43528 11.2595 8.87428 12.1745 8.45503 13.2533C8.04947 14.2969 7.77216 15.4895 7.69238 17.2358C7.61259 18.9856 7.59375 19.5443 7.59375 24C7.59375 28.4557 7.61259 29.0144 7.69238 30.7643C7.77216 32.5105 8.04947 33.7031 8.45503 34.7467C8.87428 35.8255 9.43528 36.7405 10.3474 37.6526C11.2595 38.5647 12.1744 39.1257 13.2533 39.545C14.2969 39.9505 15.4895 40.2278 17.2358 40.3075C18.9856 40.3874 19.5443 40.4062 24 40.4062C28.4557 40.4062 29.0144 40.3874 30.7643 40.3075C32.5105 40.2278 33.7031 39.9505 34.7467 39.545C35.8255 39.1257 36.7405 38.5647 37.6526 37.6526C38.5647 36.7405 39.1257 35.8255 39.545 34.7467C39.9505 33.7031 40.2278 32.5105 40.3075 30.7643C40.3874 29.0144 40.4062 28.4557 40.4062 24C40.4062 19.5443 40.3874 18.9856 40.3075 17.2358C40.2278 15.4895 39.9505 14.2969 39.545 13.2533C39.1257 12.1745 38.5647 11.2595 37.6526 10.3474C36.7405 9.43538 35.8255 8.87438 34.7467 8.45513C33.7031 8.04947 32.5105 7.77216 30.7643 7.69247C29.0144 7.61259 28.4557 7.59375 24 7.59375ZM24 10.5499C28.3807 10.5499 28.8996 10.5666 30.6295 10.6455C32.2291 10.7185 33.0978 10.9858 33.6759 11.2103C34.4418 11.508 34.9883 11.8636 35.5624 12.4376C36.1365 13.0118 36.492 13.5583 36.7897 14.3241C37.0143 14.9022 37.2816 15.7709 37.3545 17.3705C37.4334 19.1004 37.4502 19.6193 37.4502 24C37.4502 28.3807 37.4334 28.8996 37.3545 30.6295C37.2816 32.2291 37.0143 33.0978 36.7897 33.6759C36.492 34.4418 36.1365 34.9883 35.5624 35.5624C34.9883 36.1365 34.4418 36.492 33.6759 36.7897C33.0978 37.0143 32.2291 37.2816 30.6295 37.3545C28.8998 37.4334 28.3809 37.4502 24 37.4502C19.6191 37.4502 19.1003 37.4334 17.3705 37.3545C15.7709 37.2816 14.9022 37.0143 14.3241 36.7897C13.5582 36.492 13.0118 36.1365 12.4376 35.5624C11.8635 34.9883 11.5079 34.4418 11.2103 33.6759C10.9857 33.0978 10.7184 32.2291 10.6454 30.6295C10.5665 28.8996 10.5498 28.3807 10.5498 24C10.5498 19.6193 10.5665 19.1004 10.6454 17.3705C10.7184 15.7709 10.9857 14.9022 11.2103 14.3241C11.5079 13.5583 11.8635 13.0118 12.4376 12.4376C13.0118 11.8636 13.5582 11.508 14.3241 11.2103C14.9022 10.9858 15.7709 10.7185 17.3705 10.6455C19.1004 10.5666 19.6193 10.5499 24 10.5499ZM24 15.5752C19.3471 15.5752 15.5752 19.3471 15.5752 24C15.5752 28.6529 19.3471 32.4248 24 32.4248C28.6529 32.4248 32.4248 28.6529 32.4248 24C32.4248 19.3471 28.6529 15.5752 24 15.5752ZM24 29.4687C20.9797 29.4687 18.5313 27.0203 18.5313 24C18.5313 20.9797 20.9797 18.5313 24 18.5313C27.0203 18.5313 29.4687 20.9797 29.4687 24C29.4687 27.0203 27.0203 29.4687 24 29.4687ZM34.7265 15.2423C34.7265 16.3297 33.845 17.211 32.7577 17.211C31.6704 17.211 30.789 16.3297 30.789 15.2423C30.789 14.155 31.6704 13.2736 32.7577 13.2736C33.845 13.2736 34.7265 14.155 34.7265 15.2423Z" fill="#323238"/>
</g>
<defs>
<clipPath id="clip0_61535:170">
<rect width="48" height="48" rx="8" fill="white"/>
</clipPath>
</defs>
</svg>
