<svg width="48" height="48" viewBox="0 0 48 48" fill="none" xmlns="http://www.w3.org/2000/svg">
<g clip-path="url(#clip0_61537:4)">
<rect width="48" height="48" rx="8" fill="white"/>
<path fill-rule="evenodd" clip-rule="evenodd" d="M42.1356 0C45.3723 0 48 2.62781 48 5.86444V42.1356C48 45.3722 45.3722 48 42.1356 48H5.86444C2.62781 48 0 45.3722 0 42.1356V5.86444C0 2.62781 2.62772 0 5.86444 0H42.1356V0ZM18.3299 39.801C31.0742 39.801 38.0425 29.2407 38.0425 20.0884C38.0425 19.7867 38.0425 19.4849 38.0282 19.1976C39.3788 18.2206 40.5569 16.9993 41.4908 15.6056C40.2552 16.1516 38.919 16.5252 37.511 16.6976C38.9478 15.8355 40.0397 14.4849 40.5569 12.8614C39.2208 13.6516 37.7408 14.2264 36.1604 14.5424C34.896 13.1918 33.1 12.3585 31.103 12.3585C27.2811 12.3585 24.1777 15.462 24.1777 19.2838C24.1777 19.8298 24.2351 20.3614 24.3644 20.8643C18.6029 20.5769 13.5023 17.8183 10.0828 13.6229C9.49369 14.643 9.14887 15.8355 9.14887 17.0999C9.14887 19.4993 10.3702 21.6258 12.2379 22.8614C11.1029 22.8326 10.0397 22.5166 9.10575 21.9993V22.0855C9.10575 25.4476 11.4908 28.235 14.6662 28.8815C14.0915 29.0395 13.4737 29.1258 12.8414 29.1258C12.396 29.1258 11.965 29.0827 11.534 28.9964C12.4104 31.7551 14.9678 33.7522 17.9994 33.8096C15.6288 35.6632 12.6403 36.7694 9.39319 36.7694C8.83284 36.7694 8.28684 36.7407 7.74084 36.6688C10.7724 38.6516 14.4218 39.801 18.3299 39.801V39.801Z" fill="#323238"/>
</g>
<defs>
<clipPath id="clip0_61537:4">
<rect width="48" height="48" rx="8" fill="white"/>
</clipPath>
</defs>
</svg>
